Coordinates
version=1
nRows=26
nColumns=22
inDegrees=yes

Units are S.I. units (second, meters, Newtons, ...)
If the header above contains a line with 'inDegrees', this indicates whether rotational values are in degrees (yes) or radians (no).

endheader
time	pelvis_tilt	pelvis_list	pelvis_rotation	pelvis_tx	pelvis_ty	pelvis_tz	hip_flexion_r	hip_adduction_r	hip_rotation_r	knee_angle_r	ankle_angle_r	subtalar_angle_r	hip_flexion_l	hip_adduction_l	hip_rotation_l	knee_angle_l	ankle_angle_l	subtalar_angle_l	lumbar_extension	lumbar_bending	lumbar_rotation
      5.20000000	     -3.75395915	      4.04226660	    237.40235663	     -0.72174295	      0.92329012	      0.03663515	     -6.82688795	      2.05766723	     -5.03183061	    -27.10860112	     15.03026252	     10.12141466	     31.79326104	     -3.73707150	    -14.23911069	    -23.71582346	      3.59746285	    -11.15260884	     -6.53919583	      3.09562135	      5.73926422
      5.21000000	     -3.54418392	      4.13333033	    238.01510337	     -0.72459905	      0.92350581	      0.04789474	     -6.68207351	      1.78744661	     -4.90182424	    -28.11539640	     13.65139942	     10.89019827	     31.83921499	     -3.06953144	    -13.30368669	    -24.31851278	      2.64646298	    -11.54183841	     -6.03811244	      2.91852660	      5.74143092
      5.22000000	     -3.34856463	      4.24226786	    238.62805004	     -0.72726931	      0.92394644	      0.05917242	     -6.38099998	      1.53283614	     -4.70648046	    -29.31314408	     12.04586320	     11.75934504	     31.85548205	     -2.39522423	    -12.30895264	    -24.87901394	      1.74654432	    -11.84525042	     -5.53970079	      2.77257082	      5.76576253
      5.23000000	     -3.17162362	      4.36840793	    239.24471190	     -0.72976789	      0.92457405	      0.07043542	     -5.91488040	      1.30528587	     -4.42981059	    -30.71181232	     10.22285958	     12.61165640	     31.82550093	     -1.72516271	    -11.28477829	    -25.38550058	      0.98421186	    -12.09460870	     -5.04793559	      2.65891279	      5.78625116
      5.24000000	     -3.02998471	      4.49110881	    239.84333037	     -0.73213006	      0.92537756	      0.08160027	     -5.28833744	      1.10982806	     -4.05129267	    -32.33763993	      8.21761870	     13.44961077	     31.72335943	     -1.09748097	    -10.32800142	    -25.84543245	      0.35726574	    -12.35026654	     -4.60086899	      2.57793886	      5.82405229
      5.25000000	     -2.92644951	      4.60246103	    240.41583366	     -0.73437917	      0.92630885	      0.09260982	     -4.49949056	      0.94919333	     -3.57516003	    -34.20086792	      6.08730089	     14.18504228	     31.54367741	     -0.52581798	     -9.47293475	    -26.25909934	     -0.10725676	    -12.63676688	     -4.21419396	      2.52437004	      5.87948482
      5.26000000	     -2.85416497	      4.69314381	    240.96200647	     -0.73652177	      0.92731870	      0.10341556	     -3.55543056	      0.82166570	     -3.00768136	    -36.29595842	      3.93274005	     14.73205576	     31.27937826	     -0.00031399	     -8.71384317	    -26.61032747	     -0.41552280	    -12.94146999	     -3.89791072	      2.48556887	      5.93514383
      5.27000000	     -2.80813240	      4.73421662	    241.46549189	     -0.73858198	      0.92838342	      0.11398709	     -2.48732627	      0.70530343	     -2.37825492	    -38.60997166	      1.85971382	     15.13633588	     30.91512789	      0.48030548	     -8.09826830	    -26.90988489	     -0.57483460	    -13.26425418	     -3.68221658	      2.43901243	      6.02387871
      5.28000000	     -2.76464508	      4.72764505	    241.94556121	     -0.74056310	      0.92943633	      0.12434516	     -1.31595897	      0.59804400	     -1.69229537	    -41.09392632	     -0.00072401	     15.42713694	     30.46240669	      0.95305137	     -7.57498137	    -27.14809640	     -0.54190879	    -13.62725481	     -3.54456687	      2.36368314	      6.08259548
      5.29000000	     -2.72891306	      4.65867008	    242.41560107	     -0.74244155	      0.93047552	      0.13449680	     -0.07912016	      0.48656498	     -1.03304714	    -43.70867434	     -1.55617623	     15.55780084	     29.90640603	      1.42237768	     -7.14331182	    -27.31880914	     -0.37433333	    -13.94678098	     -3.50453201	      2.26021432	      6.11750239
      5.30000000	     -2.69200439	      4.51618347	    242.89414127	     -0.74420081	      0.93149645	      0.14447898	      1.18178702	      0.35190761	     -0.44668184	    -46.39028163	     -2.74532736	     15.55836154	     29.24359456	      1.90950869	     -6.78307985	    -27.42306810	     -0.08621910	    -14.19582215	     -3.56168010	      2.11447826	      6.11079176
      5.31000000	     -2.63946614	      4.36689395	    243.40393076	     -0.74581480	      0.93239760	      0.15430160	      2.50702798	      0.22636720	      0.07470412	    -49.07598357	     -3.49532510	     15.40926869	     28.55226152	      2.41187461	     -6.43901864	    -27.47261382	      0.32041959	    -14.44287189	     -3.63062120	      1.95558616	      6.01487818
      5.32000000	     -2.55993196	      4.15223856	    243.95410947	     -0.74723136	      0.93327924	      0.16402060	      3.82232659	      0.03479798	      0.46406296	    -51.71107764	     -3.81080584	     15.17305725	     27.76767909	      2.97256261	     -6.11553122	    -27.43991274	      0.76322357	    -14.58242214	     -3.76391315	      1.74437250	      5.85322883
      5.33000000	     -2.45751109	      3.93230835	    244.56643642	     -0.74843207	      0.93407367	      0.17363276	      5.16850961	     -0.19789098	      0.70504910	    -54.25144974	     -3.74693526	     14.79195649	     26.96106439	      3.56861312	     -5.77352951	    -27.35240601	      1.25511446	    -14.66309927	     -3.89532119	      1.51781423	      5.59954058
      5.34000000	     -2.31674144	      3.71153194	    245.24661379	     -0.74936710	      0.93478310	      0.18314402	      6.54663739	     -0.50207787	      0.80305907	    -56.66782608	     -3.33101929	     14.33796419	     26.14126229	      4.22052573	     -5.38945950	    -27.20298520	      1.74826955	    -14.69515199	     -4.01398193	      1.26811858	      5.26399078
      5.35000000	     -2.13339824	      3.48493391	    245.99505361	     -0.75003488	      0.93544356	      0.19257518	      7.93700869	     -0.88842591	      0.79246723	    -58.92745656	     -2.60108984	     14.02131967	     25.29367124	      4.93636958	     -4.94722374	    -26.97651323	      2.19585670	    -14.74790995	     -4.11978894	      0.98989594	      4.83414087
      5.36000000	     -1.89057697	      3.38202023	    246.77950853	     -0.75046709	      0.93587137	      0.20180992	      9.50402395	     -1.30220625	      0.72828971	    -61.05027238	     -1.75828770	     13.29272955	     24.57599117	      5.66998723	     -4.41597117	    -26.71064319	      2.63845254	    -14.68374873	     -4.07337661	      0.72158657	      4.38855761
      5.37000000	     -1.62300384	      3.28559936	    247.62206320	     -0.75064359	      0.93623854	      0.21092701	     11.08251825	     -1.78597393	      0.59166207	    -62.99393729	     -0.75004820	     12.54212345	     23.86915469	      6.43310740	     -3.85482106	    -26.43571224	      3.05623865	    -14.63792137	     -4.01628223	      0.44235435	      3.90168162
      5.38000000	     -1.31358188	      3.23748009	    248.49379525	     -0.75062624	      0.93653082	      0.21991043	     12.72277646	     -2.30337580	      0.48246819	    -64.75349808	      0.31208056	     11.81940763	     23.19002766	      7.22393333	     -3.22733920	    -26.09937790	      3.40488828	    -14.59513981	     -3.89523978	      0.14930216	      3.38905094
      5.39000000	     -0.99573584	      3.22125984	    249.39253084	     -0.75045768	      0.93678740	      0.22877354	     14.38222621	     -2.82232076	      0.40833835	    -66.30977492	      1.38994956	     11.01144798	     22.52253616	      8.00975605	     -2.54828253	    -25.73607728	      3.71068357	    -14.54170231	     -3.74222815	     -0.13684613	      2.88267939
      5.40000000	     -0.68932610	      3.21170580	    250.31922525	     -0.75018418	      0.93706752	      0.23755292	     16.01455179	     -3.31884720	      0.38802772	    -67.64661832	      2.43621955	     10.17484693	     21.82927112	      8.77793487	     -1.81556751	    -25.34842282	      3.97931897	    -14.49468202	     -3.59093795	     -0.41106069	      2.38514220
      5.41000000	     -0.43096669	      3.17651581	    251.27857675	     -0.74986774	      0.93746330	      0.24631221	     17.54793499	     -3.75341449	      0.42341651	    -68.73492999	      3.44131212	      9.29962948	     21.05469308	      9.50073246	     -1.01461405	    -24.93260621	      4.21823636	    -14.45733306	     -3.48458524	     -0.65155930	      1.89887894
      5.42000000	     -0.25326604	      3.07995041	    252.28004971	     -0.74957478	      0.93806124	      0.25513400	     18.90726105	     -4.09365928	      0.50324245	    -69.54746624	      4.39821614	      8.43313228	     20.14058574	     10.14892202	     -0.15414148	    -24.48319992	      4.44960654	    -14.44400149	     -3.46420834	     -0.83764416	      1.40135315
      5.43000000	     -0.18704017	      2.89693945	    253.33416823	     -0.74934953	      0.93893331	      0.26408388	     20.03833714	     -4.30890062	      0.60551165	    -70.06952830	      5.28681675	      7.63123874	     19.04489926	     10.69497717	      0.80198827	    -23.99886114	      4.66923719	    -14.45789290	     -3.55869545	     -0.94679768	      0.90078638
      5.44000000	     -0.24480118	      2.61337569	    254.44784163	     -0.74922955	      0.94009558	      0.27319659	     20.91248417	     -4.38177626	      0.71296353	    -70.29923514	      6.10410431	      6.91444720	     17.75744031	     11.11749100	      1.85302720	    -23.49472386	      4.89684122	    -14.50314328	     -3.78138323	     -0.96773977	      0.38649616
      5.45000000	     -0.43017046	      2.22136682	    255.62864627	     -0.74921141	      0.94155125	      0.28248310	     21.51671924	     -4.30933403	      0.79951411	    -70.23938294	      6.82937997	      6.25685216	     16.27221959	     11.40390479	      3.01404675	    -22.96946880	      5.13084441	    -14.57582105	     -4.13632941	     -0.89231769	     -0.15259696
